<svg width="32" height="32" viewBox="0 0 32 32" fill="none" xmlns="http://www.w3.org/2000/svg">
<g clip-path="url(#clip0)">
<path d="M31.3333 6H0.666687C0.298687 6 0 6.29869 0 6.66669C0 7.03469 0.298687 7.33337 0.666687 7.33337H31.3334C31.7014 7.33337 32.0001 7.03469 32.0001 6.66669C32.0001 6.29869 31.7013 6 31.3333 6Z" fill="white"/>
<path d="M31.3333 15.3334H0.666687C0.298687 15.3334 0 15.6321 0 16.0001C0 16.3681 0.298687 16.6668 0.666687 16.6668H31.3334C31.7014 16.6668 32.0001 16.3681 32.0001 16.0001C32.0001 15.6321 31.7013 15.3334 31.3333 15.3334Z" fill="white"/>
<path d="M31.3333 24.6666H0.666687C0.298687 24.6666 0 24.9653 0 25.3333C0 25.7013 0.298687 25.9999 0.666687 25.9999H31.3334C31.7014 25.9999 32.0001 25.7013 32.0001 25.3333C32 24.9653 31.7013 24.6666 31.3333 24.6666Z" fill="white"/>
</g>
<defs>
<clipPath id="clip0">
<rect width="32" height="32" fill="white"/>
</clipPath>
</defs>
</svg>
